<svg width="123" height="35" viewBox="0 0 123 35" fill="none" xmlns="http://www.w3.org/2000/svg">
<g clip-path="url(#clip0_2737_13691)">
<mask id="mask0_2737_13691" style="mask-type:luminance" maskUnits="userSpaceOnUse" x="0" y="0" width="123" height="35">
<path d="M122.236 0H0V34.2261H122.236V0Z" fill="white"/>
</mask>
<g mask="url(#mask0_2737_13691)">
<path d="M44.9463 8.51367V11.6939H36.3823V15.1542H44.2642V18.357H36.3823V25.0302H32.2695V8.51367H44.9463Z" fill="white"/>
<path d="M47.5547 8.4917H51.1085V11.294H47.5547V8.4917ZM47.5547 12.7971H51.1085V25.0309H47.5547V12.7971Z" fill="white"/>
<path d="M52.8594 12.8204H56.651C58.1498 18.2466 58.4073 19.3577 58.8036 21.6928C59.2933 18.9797 59.364 18.6768 60.093 15.7995L60.8403 12.8062H64.5367L60.5826 25.0174H56.8151L52.8594 12.8204Z" fill="white"/>
<path d="M77.6489 21.9156C77.2344 22.5823 76.7388 23.1965 76.1729 23.7413C74.9119 24.8821 73.2642 25.502 71.5645 25.4736C67.9359 25.4736 65.3867 23.1384 65.3867 19.1558C65.3867 16.2091 66.8389 12.4176 71.658 12.4176C73.304 12.3666 74.8973 13.0021 76.0567 14.174C77.6489 15.8837 77.7423 18.2684 77.7888 19.6469H69.0667C69.044 21.1698 69.907 22.687 71.8689 22.687C73.8302 22.687 74.511 21.3976 74.9554 20.5343L77.6489 21.9156ZM74.0667 17.4009C74.0374 16.7654 73.799 16.1568 73.3901 15.6686C72.9134 15.2255 72.2851 14.9835 71.6342 14.9921C70.9405 14.9892 70.2792 15.2779 69.808 15.786C69.4187 16.2459 69.1687 16.805 69.085 17.4022H74.0667V17.4009Z" fill="white"/>
<path d="M80.747 9.28442H84.329V13.0986H86.6913V15.298H84.3052V20.7936C84.3052 21.5408 84.3052 22.1948 85.2391 22.1948L86.5287 22.148V24.9503C85.9028 25.0649 85.2691 25.1272 84.6334 25.1371C83.3909 25.1371 82.0377 25.0678 81.2664 23.9413C80.7769 23.218 80.7531 22.349 80.7531 21.1815V15.2739H78.9727V13.0717H80.7512L80.747 9.28442Z" fill="white"/>
<path d="M92.6532 14.0808C93.4471 13.4043 94.3163 12.8665 96.1828 12.6797V15.8741L94.9922 16.0608C93.2602 16.3637 92.7461 16.6213 92.7461 18.1668V25.0309H89.1641V12.7971H92.6716L92.6532 14.0808Z" fill="white"/>
<path d="M98.0716 16.2804C98.0563 15.2246 98.533 14.2227 99.3611 13.5673C100.482 12.6799 101.934 12.4932 103.362 12.4932C104.861 12.4932 108.498 12.8427 108.498 16.0002V23.112C108.498 24.4241 108.568 24.6109 108.848 25.0312H105.318V23.9061C104.384 24.5826 103.376 25.3581 101.583 25.3581C98.7806 25.3581 97.582 23.3456 97.582 21.6232C97.582 19.6573 99.1515 18.5364 100.155 18.1161C101.159 17.6957 103.451 17.2754 104.974 16.9952V16.3412C104.927 15.7808 104.881 14.8425 103.573 14.8425C101.981 14.8425 101.77 15.8234 101.678 16.2719L98.0716 16.2804ZM102.633 19.9561C102.026 20.1894 101.088 20.5391 101.088 21.4788C101.126 22.1979 101.737 22.7511 102.456 22.7157C102.899 22.7031 103.33 22.5658 103.699 22.3195C104.889 21.5723 104.936 20.4513 104.964 19.1861L102.633 19.9561Z" fill="white"/>
<path d="M115.005 13.918C115.335 13.5117 115.751 13.1849 116.225 12.9612C116.927 12.664 117.683 12.5055 118.446 12.4941C119.2 12.4786 119.948 12.647 120.62 12.9838C121.91 13.6603 122.238 14.7628 122.238 16.6594V25.0322H118.661V18.1539C118.661 17.0571 118.639 16.6551 118.498 16.3282C118.206 15.7111 117.563 15.3389 116.881 15.3941C114.987 15.3941 114.987 16.9169 114.987 18.4341V25.0322H111.396V12.8437H115.024L115.005 13.918Z" fill="white"/>
<path d="M16.8837 16.9849H20.2946C20.5663 16.9906 20.7927 16.7741 20.7984 16.5023C20.7999 16.433 20.787 16.3636 20.7602 16.3L14.891 0.325529C14.8203 0.130219 14.6348 -0.00140399 14.4268 1.13026e-05H11.0032C10.7314 -0.00140399 10.5092 0.217967 10.5078 0.491118C10.5078 0.55056 10.5177 0.608588 10.539 0.663784L16.4068 16.6594C16.4789 16.859 16.6715 16.9906 16.8837 16.9849Z" fill="white"/>
<path d="M16.2666 33.967H19.6774C19.9492 33.9684 20.1713 33.7491 20.1728 33.4759C20.1728 33.4164 20.1629 33.3585 20.1416 33.3033L8.03948 0.325524C7.9687 0.130214 7.78333 6.80974e-06 7.57382 6.80974e-06H4.16723C3.8955 -0.00140848 3.6733 0.217962 3.67188 0.491113C3.67188 0.550556 3.68179 0.608583 3.70302 0.663779L15.8024 33.6444C15.8746 33.8383 16.0599 33.967 16.2666 33.967Z" fill="white"/>
<path d="M9.55225 33.9669H12.9631C13.2348 33.9796 13.4655 33.7687 13.4782 33.4969C13.4811 33.4304 13.4712 33.3653 13.4485 33.303L7.55949 17.3074C7.48871 17.1121 7.30335 16.9804 7.09529 16.9819H3.66746C3.39572 16.989 3.18059 17.2154 3.18767 17.4872C3.18908 17.5424 3.20041 17.5976 3.22022 17.6499L9.08806 33.6456C9.16023 33.838 9.34561 33.9669 9.55225 33.9669Z" fill="white"/>
<path d="M17.2942 0.668032L20.0456 8.1507C20.1164 8.34597 20.3017 8.47762 20.5099 8.47621H23.9207C24.1924 8.47762 24.4146 8.25826 24.416 7.98506C24.416 7.92566 24.4062 7.8676 24.3849 7.81241L21.6336 0.325529C21.5629 0.130219 21.3774 -0.00140399 21.1694 1.13026e-05H17.7585C17.4868 -0.00140399 17.2632 0.216551 17.2617 0.489703C17.2617 0.55056 17.2717 0.611418 17.2942 0.668032Z" fill="white"/>
<path d="M3.25941 33.9681H6.6703C6.94202 33.9695 7.16419 33.7502 7.16566 33.477C7.16566 33.4175 7.1557 33.3596 7.13449 33.3044L4.3676 25.8019C4.29683 25.6066 4.11143 25.4749 3.90338 25.4763H0.496768C0.225031 25.4749 0.00141529 25.6929 0 25.9661C0 26.0269 0.00990705 26.0878 0.0325518 26.1444L2.78389 33.6468C2.85606 33.8436 3.04854 33.9738 3.25941 33.9681Z" fill="white"/>
</g>
</g>
<defs>
<clipPath id="clip0_2737_13691">
<rect width="123" height="34.2261" fill="white"/>
</clipPath>
</defs>
</svg>
