<svg width="203" height="26" viewBox="0 0 203 26" fill="none" xmlns="http://www.w3.org/2000/svg">
<g clip-path="url(#clip0_2709_11039)">
<path fill-rule="evenodd" clip-rule="evenodd" d="M14.09 1.51809L13.5031 2.29831L12.9965 2.97527C12.4542 2.61654 11.8377 2.38511 11.1933 2.29831L11.4572 1.9488L12.0441 1.16946L12.632 0.390113C12.6685 0.336649 12.7074 0.284819 12.7485 0.234774C12.8067 0.160635 12.8676 0.0838478 12.9162 0C13.2392 0.0406 13.5428 0.0820826 13.9488 0.185348C14.1271 0.491613 14.2427 0.76787 14.3504 1.02471L14.3945 1.12886C14.3195 1.20388 14.2604 1.28773 14.2021 1.36804C14.1659 1.42012 14.1297 1.47043 14.09 1.51809ZM15.3054 9.49952C16.2983 9.86845 18.2427 11.6328 19.1341 13.5825C20.1871 15.8596 19.8226 20.578 19.7414 21.0705L19.6602 22.4244H16.4801C14.1306 22.4244 13.4016 20.0652 13.1792 18.3424L9.91705 25.0511L6.65669 18.3424C6.43339 20.0652 5.70436 22.4244 3.35485 22.4244H0.174813L0.0936126 21.1323C0.0530126 20.6601 -0.311505 15.8605 0.741447 13.5833C1.63288 11.6548 3.57727 9.88963 4.5702 9.5004C4.73172 5.35567 7.12183 3.8164 9.45103 3.8164H10.4237C12.7538 3.8164 15.143 5.37597 15.3054 9.5004V9.49952ZM4.89412 16.0035C4.89412 18.6089 4.4484 20.0855 3.39545 20.0855H1.9974C1.9365 18.4651 1.9568 15.8799 2.52432 14.6698C2.94973 13.7466 3.61875 12.6593 4.18539 12.105L4.89412 16.0035ZM9.93735 5.90907H9.45191C8.11476 5.90907 6.77761 6.60633 6.47399 9.17119H13.4016C13.1183 6.60633 11.7599 5.90907 10.4237 5.90907H9.93823H9.93735ZM9.93735 20.4756L8.45898 17.5418H11.4369L9.93735 20.4765V20.4756ZM13.0371 14.7519L13.4219 11.9611H6.47399L6.85881 14.7519H13.0371ZM17.8782 20.0864H16.5013C15.4475 20.0864 15.0009 18.6089 15.0009 16.0035L15.7105 12.105C16.278 12.6593 16.9461 13.7254 17.3716 14.6698C17.9188 15.9002 17.9594 18.4651 17.8782 20.0864ZM6.89941 2.95497L6.39279 2.29831L5.80586 1.53927L5.7679 1.48543C5.6894 1.36575 5.6005 1.25323 5.50224 1.14916C5.62316 0.841126 5.74496 0.554278 5.94707 0.184465C6.33189 0.0873783 6.64345 0.045013 6.93383 0.00617826L6.98061 0C7.06181 0.143865 7.16243 0.266548 7.26393 0.390113L7.85174 1.14916L8.43868 1.9285L8.70258 2.27713C8.07416 2.35921 7.46693 2.58516 6.89941 2.95409V2.95497Z" fill="white"/>
<path d="M30.2344 5.45097H33.9034V19.6204H30.2344V5.45097ZM43.5988 12.6283V19.6204H40.2167V5.26562H40.5035L48.8045 12.4633V5.45097H52.1866V19.8269H51.8998L43.5988 12.6283Z" fill="white"/>
<path fill-rule="evenodd" clip-rule="evenodd" d="M63.5197 5.45117H58.457V19.5994H63.5197C67.7006 19.5994 70.8577 16.8368 70.8577 12.5262C70.8577 8.17402 67.6803 5.45117 63.5197 5.45117ZM67.1269 12.5465C67.1269 14.9383 65.9795 16.4238 63.3555 16.4238H62.1463V8.66916H63.3555C65.9592 8.66916 67.1269 10.1952 67.1269 12.5465Z" fill="white"/>
<path d="M76.6992 14.0309V5.45191H80.3682V13.9691C80.3682 15.7016 81.1273 16.5684 82.7663 16.5684C84.4062 16.5684 85.1643 15.7228 85.1643 13.9691V5.45191H88.8333V14.0309C88.8333 17.8676 86.2914 19.8684 82.7875 19.8684C79.1794 19.8684 76.6992 17.8473 76.6992 14.0309ZM93.8554 16.5887L96.7247 14.8976C97.3196 15.9285 98.2005 16.7334 99.6559 16.7334C100.66 16.7334 101.378 16.3618 101.378 15.7016C101.378 15.022 100.865 14.7325 99.4714 14.1553L98.8765 13.9082C96.5606 12.9585 94.9825 11.8243 94.9825 9.28772C94.9825 6.81201 96.8686 5.18359 99.5941 5.18359C101.623 5.18359 103.017 5.78112 104.185 7.61695L101.398 9.22594C100.906 8.44219 100.394 8.21447 99.6965 8.21447C98.9586 8.21447 98.4873 8.58605 98.4873 9.22594C98.4873 9.98852 99.1025 10.2568 99.9427 10.6072L100.537 10.8544C103.12 11.9064 105.005 12.9797 105.005 15.661C105.005 18.3 103.017 19.8473 99.6965 19.8473C96.8474 19.8684 94.7777 18.4863 93.8554 16.5887ZM113.43 8.64783H109.433V5.45102H121.116V8.64783H117.119V19.6204H113.43V8.64783Z" fill="white"/>
<path fill-rule="evenodd" clip-rule="evenodd" d="M134.152 19.6206H138.271L135.586 15.1863C137.103 14.4026 138.066 13.0001 138.066 10.8757C138.066 7.14225 135.341 5.45117 131.61 5.45117H126.834V19.5994H130.503V16.2172H131.61C131.815 16.2172 131.999 16.2172 132.183 16.1969L134.152 19.6215V19.6206ZM134.315 10.8757C134.315 12.4847 133.434 13.1034 131.528 13.1034H130.503V8.62768H131.528C133.454 8.62768 134.315 9.26669 134.315 10.8757Z" fill="white"/>
<path d="M144.072 5.45117H147.741V19.6206H144.072V5.45117Z" fill="white"/>
<path fill-rule="evenodd" clip-rule="evenodd" d="M161.289 5.2041C157.149 5.2041 153.705 8.17408 153.705 12.5262C153.705 16.8157 157.149 19.8686 161.289 19.8475C165.43 19.8475 168.873 16.8157 168.873 12.5262C168.873 8.19438 165.409 5.2041 161.289 5.2041ZM161.289 8.46269C163.565 8.46269 165.122 10.1335 165.122 12.5262C165.122 14.9799 163.565 16.5889 161.289 16.5889C159.014 16.5889 157.456 14.9596 157.456 12.5253C157.456 10.1538 159.014 8.46269 161.289 8.46269Z" fill="white"/>
<path d="M174.695 14.0309V5.45191H178.364V13.9691C178.364 15.7016 179.122 16.5684 180.762 16.5684C182.402 16.5684 183.16 15.7228 183.16 13.9691V5.45191H186.829V14.0309C186.829 17.8676 184.288 19.8684 180.783 19.8684C177.175 19.8684 174.695 17.8473 174.695 14.0309ZM191.851 16.5887L194.721 14.8976C195.315 15.9285 196.197 16.7334 197.652 16.7334C198.656 16.7334 199.373 16.3618 199.373 15.7016C199.373 15.022 198.861 14.7325 197.467 14.1553L196.873 13.9082C194.557 12.9585 192.979 11.8243 192.979 9.28772C192.979 6.81201 194.864 5.18359 197.59 5.18359C199.619 5.18359 201.013 5.78112 202.182 7.61695L199.394 9.22594C198.902 8.44219 198.39 8.21447 197.693 8.21447C196.955 8.21447 196.483 8.58605 196.483 9.22594C196.483 9.98852 197.099 10.2568 197.939 10.6072L198.533 10.8544C201.115 11.9064 203.001 12.9797 203.001 15.661C203.001 18.3 201.013 19.8473 197.693 19.8473C194.844 19.8684 192.774 18.4863 191.851 16.5887Z" fill="white"/>
</g>
<defs>
<clipPath id="clip0_2709_11039">
<rect width="203" height="25.5957" fill="white"/>
</clipPath>
</defs>
</svg>
