<svg width="124" height="27" viewBox="0 0 124 27" fill="none" xmlns="http://www.w3.org/2000/svg">
<g clip-path="url(#clip0_2663_82850)">
<path d="M10.1829 15.7773C11.0747 17.3751 12.7837 18.3966 14.6182 18.3966C16.4526 18.3966 18.1616 17.3751 19.0534 15.7773C19.1324 15.6358 19.07 15.4598 18.9237 15.3902L17.8929 14.8993C17.7469 14.8297 17.5733 14.8929 17.4919 15.0326C16.8948 16.0585 15.812 16.6779 14.6182 16.6779C13.4235 16.6779 12.3482 16.0498 11.7451 15.029C11.6634 14.8908 11.491 14.829 11.3459 14.8981L10.3126 15.3902C10.1663 15.4598 10.1039 15.6358 10.1829 15.7773Z" fill="white"/>
<path fill-rule="evenodd" clip-rule="evenodd" d="M28.5154 11.5493L27.3726 10.9268C26.8709 8.4648 25.6724 6.26288 23.9908 4.52552C23.0432 3.54071 21.9468 2.71385 20.7298 2.0635V1.33883C20.7298 0.957914 20.0051 0.61416 18.8345 0.372603C17.7382 0.140337 16.2517 0.000976562 14.6166 0.000976562C14.0405 0.000976562 13.4831 0.0195579 12.9442 0.0474299C10.38 0.205371 8.5033 0.72565 8.5033 1.32954V2.05421C7.68574 2.49088 6.92389 3.01115 6.21778 3.60575C4.03447 5.46388 2.46435 8.01882 1.86046 10.9268L0.717711 11.5493C0.197436 11.828 -0.0812836 12.4133 0.0209135 12.9893L1.06147 18.8331C1.16366 19.4278 1.64678 19.8737 2.24138 19.948L3.98802 20.1617C4.93567 21.1837 6.13416 21.9827 7.51846 22.568C9.37657 23.3577 11.5599 23.7758 13.9104 23.8408C14.1427 23.8501 14.3843 23.8501 14.6166 23.8501C16.4096 23.8501 18.1191 23.655 19.6799 23.2555C21.7239 22.7259 23.5077 21.834 24.8549 20.5519C25.0128 20.4033 25.1707 20.2453 25.3194 20.0781L26.9638 19.9201C27.577 19.8644 28.0694 19.4092 28.1809 18.796L29.2122 12.98C29.3144 12.4133 29.0357 11.828 28.5154 11.5493ZM14.6167 20.6634C11.5136 20.6634 8.96796 20.0223 7.2585 18.8053C5.59547 17.6254 4.78718 15.9066 4.78718 13.5561C4.78718 8.13031 9.20022 3.71725 14.626 3.71725C20.0517 3.71725 24.4648 8.13031 24.4648 13.5561C24.4648 15.9066 23.6565 17.6161 21.9935 18.8053C20.2654 20.0223 17.7198 20.6634 14.6167 20.6634Z" fill="white"/>
<path d="M39.8676 21.5915C38.6761 21.5915 37.5735 21.3602 36.5597 20.8978C35.5638 20.4177 34.7457 19.7508 34.1055 18.8971L36.0795 16.5229C37.1111 17.9456 38.347 18.657 39.7876 18.657C41.7261 18.657 42.6954 17.5099 42.6954 15.2157V5.55866V2.65088H46.1634V15.029C46.1634 17.2165 45.6298 18.8615 44.5628 19.9641C43.4957 21.049 41.9306 21.5915 39.8676 21.5915Z" fill="white"/>
<path d="M55.1472 6.91895C57.2458 6.91895 58.8464 7.42581 59.9491 8.43953C61.0694 9.43543 61.6297 10.9471 61.6297 12.9746V21.3244H58.4818V19.5904C58.0727 20.2129 57.4858 20.6931 56.7211 21.031C55.9742 21.3511 55.0671 21.5112 54.0001 21.5112C52.933 21.5112 51.9993 21.3333 51.199 20.9776C50.3987 20.6042 49.7763 20.0973 49.3316 19.457C48.9048 18.799 48.6914 18.0609 48.6914 17.2428C48.6914 15.9624 49.1627 14.9397 50.1053 14.175C51.0657 13.3925 52.5684 13.0013 54.6137 13.0013H58.295V12.7878C58.295 11.7919 57.9927 11.0272 57.3881 10.4936C56.8012 9.96011 55.9208 9.69333 54.747 9.69333C53.9468 9.69333 53.1553 9.81781 52.3728 10.0668C51.6081 10.3158 50.9589 10.6626 50.4254 11.1072L49.1182 8.67961C49.8652 8.11047 50.7633 7.67476 51.8126 7.37241C52.8619 7.07006 53.9734 6.91895 55.1472 6.91895ZM54.6937 19.0836C55.5295 19.0836 56.2676 18.8968 56.9079 18.5233C57.5659 18.1321 58.0283 17.5808 58.295 16.8694V15.2154H54.8538C52.933 15.2154 51.9726 15.8468 51.9726 17.1095C51.9726 17.7142 52.2127 18.1943 52.6929 18.55C53.1731 18.9057 53.84 19.0836 54.6937 19.0836Z" fill="white"/>
<path d="M70.314 21.5112C69.158 21.5112 68.0291 21.36 66.9261 21.0576C65.8236 20.7553 64.9432 20.373 64.2852 19.9106L65.5657 17.3763C66.2059 17.8031 66.9705 18.1499 67.8602 18.4167C68.7671 18.6656 69.6562 18.7901 70.5273 18.7901C72.5194 18.7901 73.5151 18.2655 73.5151 17.2162C73.5151 16.7182 73.2574 16.3714 72.742 16.1758C72.2438 15.9802 71.4343 15.7934 70.314 15.6156C69.1401 15.4377 68.1802 15.2332 67.4329 15.002C66.7042 14.7708 66.0636 14.3707 65.5123 13.8015C64.9788 13.2146 64.712 12.4054 64.712 11.374C64.712 10.0223 65.2722 8.94639 66.3928 8.14605C67.531 7.32796 69.0606 6.91895 70.9811 6.91895C71.9589 6.91895 72.9374 7.03455 73.9152 7.26569C74.8937 7.47913 75.694 7.77254 76.3167 8.14605L75.0361 10.6803C73.8265 9.96898 72.4664 9.6133 70.9546 9.6133C69.9762 9.6133 69.2295 9.76448 68.7135 10.0668C68.2153 10.3514 67.9669 10.7337 67.9669 11.2139C67.9669 11.7474 68.2332 12.1298 68.7671 12.361C69.3183 12.5744 70.163 12.7789 71.3011 12.9746C72.4392 13.1524 73.3733 13.3569 74.102 13.5882C74.8314 13.8194 75.4542 14.2106 75.9696 14.7619C76.5029 15.3132 76.7698 16.0958 76.7698 17.1095C76.7698 18.4433 76.1922 19.5104 75.0361 20.3107C73.8801 21.111 72.3061 21.5112 70.314 21.5112Z" fill="white"/>
<path d="M87.5367 6.91895C88.9239 6.91895 90.1601 7.22123 91.2452 7.82594C92.3476 8.43058 93.2101 9.28425 93.8328 10.3869C94.4549 11.4896 94.7663 12.7611 94.7663 14.2017C94.7663 15.6422 94.4549 16.9227 93.8328 18.0432C93.2101 19.1458 92.3476 19.9995 91.2452 20.6042C90.1601 21.2088 88.9239 21.5112 87.5367 21.5112C85.6161 21.5112 84.0958 20.8709 82.9755 19.5904V26.4997H79.6406V7.079H82.8152V8.94639C83.3664 8.27053 84.0421 7.76367 84.8424 7.42581C85.6605 7.08788 86.5589 6.91895 87.5367 6.91895ZM87.1637 18.6568C88.3906 18.6568 89.3956 18.2477 90.178 17.4296C90.9782 16.6115 91.3784 15.5356 91.3784 14.2017C91.3784 12.8678 90.9782 11.7919 90.178 10.9738C89.3956 10.1557 88.3906 9.74666 87.1637 9.74666C86.3634 9.74666 85.6427 9.93341 85.0027 10.3068C84.3627 10.6626 83.8553 11.1783 83.4823 11.8541C83.1087 12.5299 82.9219 13.3125 82.9219 14.2017C82.9219 15.0909 83.1087 15.8734 83.4823 16.5493C83.8553 17.2251 84.3627 17.7497 85.0027 18.1232C85.6427 18.4789 86.3634 18.6568 87.1637 18.6568Z" fill="white"/>
<path d="M111.558 14.2817C111.558 14.5129 111.54 14.842 111.504 15.2688H100.327C100.523 16.3181 101.029 17.1539 101.847 17.7764C102.684 18.3811 103.715 18.6834 104.942 18.6834C106.507 18.6834 107.796 18.1676 108.81 17.1362L110.597 19.1902C109.957 19.955 109.148 20.533 108.17 20.9243C107.192 21.3155 106.089 21.5112 104.862 21.5112C103.297 21.5112 101.918 21.1999 100.727 20.5775C99.5354 19.955 98.6106 19.0925 97.9528 17.9898C97.3122 16.8694 96.9922 15.6066 96.9922 14.2017C96.9922 12.8145 97.3035 11.5696 97.9256 10.467C98.5662 9.34652 99.4467 8.47503 100.567 7.85257C101.687 7.23018 102.95 6.91895 104.355 6.91895C105.742 6.91895 106.978 7.23018 108.063 7.85257C109.166 8.45728 110.02 9.31982 110.624 10.4403C111.247 11.5429 111.558 12.8234 111.558 14.2817ZM104.355 9.5866C103.288 9.5866 102.381 9.90671 101.634 10.547C100.905 11.1695 100.46 12.0053 100.3 13.0546H108.383C108.241 12.0231 107.805 11.1872 107.076 10.547C106.347 9.90671 105.44 9.5866 104.355 9.5866Z" fill="white"/>
<path d="M117.698 9.15977C118.658 7.66589 120.348 6.91895 122.767 6.91895V10.0935C122.482 10.0401 122.224 10.0134 121.993 10.0134C120.694 10.0134 119.681 10.3958 118.951 11.1605C118.223 11.9075 117.858 12.9923 117.858 14.4151V21.3244H114.523V7.079H117.698V9.15977Z" fill="white"/>
</g>
<defs>
<clipPath id="clip0_2663_82850">
<rect width="123.22" height="26.499" fill="white" transform="translate(0 0.000976562)"/>
</clipPath>
</defs>
</svg>
